<svg width="24" height="24" viewBox="0 0 24 24" fill="none" xmlns="http://www.w3.org/2000/svg">
  <path d="M12 2.5C6.75 2.5 2.5 6.86 2.5 12.24C2.5 16.55 5.22 20.2 9 21.49C9.48 21.58 9.65 21.28 9.65 21.02V19.13C6.99 19.72 6.43 17.97 6.43 17.97C6 16.81 5.34 16.51 5.34 16.51C4.46 15.89 5.41 15.9 5.41 15.9C6.39 15.97 6.9 16.93 6.9 16.93C7.77 18.45 9.18 18.01 9.73 17.76C9.82 17.12 10.07 16.68 10.35 16.43C8.23 16.18 6 15.34 6 11.61C6 10.54 6.37 9.68 6.98 9C6.88 8.75 6.55 7.76 7.07 6.42C7.07 6.42 7.87 6.16 9.68 7.42C10.44 7.2 11.25 7.09 12.06 7.09C12.87 7.09 13.68 7.2 14.44 7.42C16.25 6.16 17.05 6.42 17.05 6.42C17.57 7.76 17.24 8.75 17.14 9C17.75 9.68 18.12 10.54 18.12 11.61C18.12 15.35 15.88 16.17 13.75 16.42C14.09 16.73 14.4 17.33 14.4 18.25V21.02C14.4 21.28 14.57 21.59 15.06 21.49C18.79 20.18 21.5 16.54 21.5 12.24C21.5 6.86 17.25 2.5 12 2.5Z" stroke="#8B949E" stroke-width="1.5" stroke-linejoin="round"/>
</svg>
